<svg class="diagram-root" style="background: #f5f6f6" xmlns="http://www.w3.org/2000/svg" xmlns:xlink="http://www.w3.org/1999/xlink"><style>.diagram-root { font-family: "Helvetica Neue", sans-serif; font-size: 12px; } .t { overflow: visible; } .t-bg { y: 40; fill: #fff;   } .th { fill: #005aa0;   } .tht { fill: #fff; font-size: 14px;  } .tf { fill: #323c46; overflow: visible; } .tf.pk { fill: #005aa0; font-weight: bold; } .tf.fk { font-weight: bold; } .ty { fill: #adb1b5; font-weight: normal; text-anchor: end; } .r { fill: transparent; stroke: #c3c3c3; stroke-width: 1; } .l { stroke: 1; } .i { fill: #c2c7ce; stroke: #c2c7ce; } .i.ix { fill: #afb3b6; stroke: #000; } .fa { fill: transparent; overflow: visible; } .fa .bg.hover { fill: #f7f7f7; } .c { cy: 12; r: 4; stroke: #d2d2dc; fill: #d2d2dc; } .hr { fill: transparent; stroke: #323c46; stroke-opacity: 0.035; stroke-width: 13; } .dc { stroke: #fa5a3c; fill: #fa5a3c; } .x { stroke: white; stroke-width: 1; } .hl .th { fill: #1b9bff; } .hl .tht {  } .fhl .bg { fill: #e7f4ff; } .fhls .bg {  } .r.hl { stroke: #1b9bff; } .dim { opacity: 0.25; }</style><g class="drawing-wrapper" transform="translate(3, 0) scale(1,1)"><g class="rs"><path d="M 233 87 m -1, 0 a 1,1 0 1,0 2,0 a 1,1 0 1,0 -2,0 M 233 87 m -0.5, 0 a 0.5,0.5 0 1,0 1,0 a 0.5,0.5 0 1,0 -1,0  M233 87 L233 87 221 87 M 233 93 m -1, 0 a 1,1 0 1,0 2,0 a 1,1 0 1,0 -2,0 M 233 93 m -0.5, 0 a 0.5,0.5 0 1,0 1,0 a 0.5,0.5 0 1,0 -1,0  M233 93 L233 93 226 87 233 81 M 233 81 m -1, 0 a 1,1 0 1,0 2,0 a 1,1 0 1,0 -2,0 M 233 81 m -0.5, 0 a 0.5,0.5 0 1,0 1,0 a 0.5,0.5 0 1,0 -1,0  M221 87 Q 203.01 87, 185.01 87 T 149.02 87 M 137.02 87 m -1, 0 a 1,1 0 1,0 2,0 a 1,1 0 1,0 -2,0 M 137.02 87 m -0.5, 0 a 0.5,0.5 0 1,0 1,0 a 0.5,0.5 0 1,0 -1,0  M137.02 87 L137.02 87 149.02 87 M143.02 93 L143.02 93 143.02 81" id="h733140427" class="r"></path><path d="M 276 358 m -1, 0 a 1,1 0 1,0 2,0 a 1,1 0 1,0 -2,0 M 276 358 m -0.5, 0 a 0.5,0.5 0 1,0 1,0 a 0.5,0.5 0 1,0 -1,0  M276 358 L276 358 264 358 M 276 364 m -1, 0 a 1,1 0 1,0 2,0 a 1,1 0 1,0 -2,0 M 276 364 m -0.5, 0 a 0.5,0.5 0 1,0 1,0 a 0.5,0.5 0 1,0 -1,0  M276 364 L276 364 269 358 276 352 M 276 352 m -1, 0 a 1,1 0 1,0 2,0 a 1,1 0 1,0 -2,0 M 276 352 m -0.5, 0 a 0.5,0.5 0 1,0 1,0 a 0.5,0.5 0 1,0 -1,0  M264 358 Q 242.51 358, 221.02 394 T 178.04 430 M 166.04 430 m -1, 0 a 1,1 0 1,0 2,0 a 1,1 0 1,0 -2,0 M 166.04 430 m -0.5, 0 a 0.5,0.5 0 1,0 1,0 a 0.5,0.5 0 1,0 -1,0  M166.04 430 L166.04 430 178.04 430 M172.04 436 L172.04 436 172.04 424" id="h3100269595" class="r"></path><path d="M 272 521 m -1, 0 a 1,1 0 1,0 2,0 a 1,1 0 1,0 -2,0 M 272 521 m -0.5, 0 a 0.5,0.5 0 1,0 1,0 a 0.5,0.5 0 1,0 -1,0  M272 521 L272 521 260 521 M 272 527 m -1, 0 a 1,1 0 1,0 2,0 a 1,1 0 1,0 -2,0 M 272 527 m -0.5, 0 a 0.5,0.5 0 1,0 1,0 a 0.5,0.5 0 1,0 -1,0  M272 527 L272 527 265 521 272 515 M 272 515 m -1, 0 a 1,1 0 1,0 2,0 a 1,1 0 1,0 -2,0 M 272 515 m -0.5, 0 a 0.5,0.5 0 1,0 1,0 a 0.5,0.5 0 1,0 -1,0  M260 521 Q 239.51 521, 219.02 488 T 178.04 455 M 166.04 455 m -1, 0 a 1,1 0 1,0 2,0 a 1,1 0 1,0 -2,0 M 166.04 455 m -0.5, 0 a 0.5,0.5 0 1,0 1,0 a 0.5,0.5 0 1,0 -1,0  M166.04 455 L166.04 455 178.04 455 M172.04 461 L172.04 461 172.04 449" id="h95869789" class="r"></path><path d="M 284 223 m -1, 0 a 1,1 0 1,0 2,0 a 1,1 0 1,0 -2,0 M 284 223 m -0.5, 0 a 0.5,0.5 0 1,0 1,0 a 0.5,0.5 0 1,0 -1,0  M284 223 L284 223 272 223 M 284 229 m -1, 0 a 1,1 0 1,0 2,0 a 1,1 0 1,0 -2,0 M 284 229 m -0.5, 0 a 0.5,0.5 0 1,0 1,0 a 0.5,0.5 0 1,0 -1,0  M284 229 L284 229 277 223 284 217 M 284 217 m -1, 0 a 1,1 0 1,0 2,0 a 1,1 0 1,0 -2,0 M 284 217 m -0.5, 0 a 0.5,0.5 0 1,0 1,0 a 0.5,0.5 0 1,0 -1,0  M272 223 Q 248.51 223, 225.02 264 T 178.04 305 M 166.04 305 m -1, 0 a 1,1 0 1,0 2,0 a 1,1 0 1,0 -2,0 M 166.04 305 m -0.5, 0 a 0.5,0.5 0 1,0 1,0 a 0.5,0.5 0 1,0 -1,0  M166.04 305 L166.04 305 178.04 305 M172.04 311 L172.04 311 172.04 299" id="h2902318702" class="r"></path></g><g class="hrs"></g><g class="ts"><svg width="118.02" height="175" x="19" y="30" id="h1537667952" class="t"><rect height="40" width="118.02" class="th"></rect><text x="13" y="25" class="tht">User</text><rect height="135" width="118.02" class="t-bg"></rect><text x="13" y="61" class="tf pk">UserId<tspan x="105.02" class="ty">int</tspan></text><path d="M7,14A2,2 0 0,1 5,12A2,2 0 0,1 7,10A2,2 0 0,1 9,12A2,2 0 0,1 7,14M12.65,10C11.83,7.67 9.61,6 7, 6A6, 6 0 0, 0 1, 12A6, 6 0 0, 0 7, 18C9.61, 18 11.83, 16.33 12.65, 14H17V18H21V14H23V10H12.65Z" class="i pk" transform="translate(72.346171875, 48) scale(0.65)"></path><text x="13" y="86" class="tf">Name<tspan x="105.02" class="ty">varchar</tspan></text><text x="13" y="111" class="tf">email<tspan x="105.02" class="ty">varchar</tspan></text><text x="13" y="136" class="tf">login<tspan x="105.02" class="ty">varchar</tspan></text><text x="13" y="161" class="tf">birthday<tspan x="105.02" class="ty">date</tspan></text></svg><svg width="144.04" height="225" x="22" y="248" id="h2744470858" class="t"><rect height="40" width="144.04" class="th"></rect><text x="13" y="25" class="tht">Film</text><rect height="185" width="144.04" class="t-bg"></rect><text x="13" y="61" class="tf pk">FilmId<tspan x="131.04" class="ty">int</tspan></text><path d="M7,14A2,2 0 0,1 5,12A2,2 0 0,1 7,10A2,2 0 0,1 9,12A2,2 0 0,1 7,14M12.65,10C11.83,7.67 9.61,6 7, 6A6, 6 0 0, 0 1, 12A6, 6 0 0, 0 7, 18C9.61, 18 11.83, 16.33 12.65, 14H17V18H21V14H23V10H12.65Z" class="i pk" transform="translate(98.36617187499999, 48) scale(0.65)"></path><text x="13" y="86" class="tf">name<tspan x="131.04" class="ty">varchar</tspan></text><text x="13" y="111" class="tf">description<tspan x="131.04" class="ty">varchar</tspan></text><text x="13" y="136" class="tf">releaseDate<tspan x="131.04" class="ty">date</tspan></text><text x="13" y="161" class="tf">duration<tspan x="131.04" class="ty">int</tspan></text><text x="13" y="186" class="tf fk">genreId<tspan x="131.04" class="ty">int</tspan></text><text x="13" y="211" class="tf fk">MpaId<tspan x="131.04" class="ty">int</tspan></text></svg><svg width="114.02" height="100" x="233" y="30" id="h3799782553" class="t"><rect height="40" width="114.02" class="th"></rect><text x="13" y="25" class="tht">UserFriend</text><rect height="60" width="114.02" class="t-bg"></rect><text x="13" y="61" class="tf pk">UserId<tspan x="101.02" class="ty">int</tspan></text><path d="M7,14A2,2 0 0,1 5,12A2,2 0 0,1 7,10A2,2 0 0,1 9,12A2,2 0 0,1 7,14M12.65,10C11.83,7.67 9.61,6 7, 6A6, 6 0 0, 0 1, 12A6, 6 0 0, 0 7, 18C9.61, 18 11.83, 16.33 12.65, 14H17V18H21V14H23V10H12.65Z" class="i pk" transform="translate(68.346171875, 48) scale(0.65)"></path><text x="13" y="86" class="tf">FriendId<tspan x="101.02" class="ty">int</tspan></text></svg><svg width="119.37" height="100" x="276" y="301" id="h807582512" class="t"><rect height="40" width="119.37" class="th"></rect><text x="13" y="25" class="tht">Genre</text><rect height="60" width="119.37" class="t-bg"></rect><text x="13" y="61" class="tf pk">genreId<tspan x="106.37" class="ty">int</tspan></text><path d="M7,14A2,2 0 0,1 5,12A2,2 0 0,1 7,10A2,2 0 0,1 9,12A2,2 0 0,1 7,14M12.65,10C11.83,7.67 9.61,6 7, 6A6, 6 0 0, 0 1, 12A6, 6 0 0, 0 7, 18C9.61, 18 11.83, 16.33 12.65, 14H17V18H21V14H23V10H12.65Z" class="i pk" transform="translate(73.696171875, 48) scale(0.65)"></path><text x="13" y="86" class="tf">genre<tspan x="106.37" class="ty">varchar</tspan></text></svg><svg width="112.03" height="100" x="272" y="439" id="h785800594" class="t"><rect height="40" width="112.03" class="th"></rect><text x="13" y="25" class="tht">Mpa</text><rect height="60" width="112.03" class="t-bg"></rect><text x="13" y="61" class="tf pk">mpaId<tspan x="99.03" class="ty">int</tspan></text><path d="M7,14A2,2 0 0,1 5,12A2,2 0 0,1 7,10A2,2 0 0,1 9,12A2,2 0 0,1 7,14M12.65,10C11.83,7.67 9.61,6 7, 6A6, 6 0 0, 0 1, 12A6, 6 0 0, 0 7, 18C9.61, 18 11.83, 16.33 12.65, 14H17V18H21V14H23V10H12.65Z" class="i pk" transform="translate(66.356171875, 48) scale(0.65)"></path><text x="13" y="86" class="tf fk">mpa<tspan x="99.03" class="ty">int</tspan></text></svg><svg width="111.34" height="100" x="284" y="166" id="h334751877" class="t"><rect height="40" width="111.34" class="th"></rect><text x="13" y="25" class="tht">Likes</text><rect height="60" width="111.34" class="t-bg"></rect><text x="13" y="61" class="tf pk">FilmId<tspan x="98.34" class="ty">int</tspan></text><path d="M7,14A2,2 0 0,1 5,12A2,2 0 0,1 7,10A2,2 0 0,1 9,12A2,2 0 0,1 7,14M12.65,10C11.83,7.67 9.61,6 7, 6A6, 6 0 0, 0 1, 12A6, 6 0 0, 0 7, 18C9.61, 18 11.83, 16.33 12.65, 14H17V18H21V14H23V10H12.65Z" class="i pk" transform="translate(65.666171875, 48) scale(0.65)"></path><text x="13" y="86" class="tf">userId<tspan x="98.34" class="ty">int</tspan></text></svg></g></g><text class="qdbd-link" x="10" y="20">www.quickdatabasediagrams.com</text></svg>